# xmcd
#
# Track frame offsets: 
#        150
#        18187
#        38050
#        88012
#        102575
#        116237
#
# Disc length: 2215 seconds
#
# Revision: 1
# Processed by: cddbd v1.5.2PL0 Copyright (c) Steve Scherf et al.
# Submitted via: ExactAudioCopyFreeDBPlugin 1.0
#
DISCID=4608a506
DTITLE=高橋竹山 - 津軽三味線
DYEAR=1981
DGENRE=JPop
TTITLE0=三味線よされ
TTITLE1=あいや節
TTITLE2=三味線じょんから
TTITLE3=津軽三下り
TTITLE4=津軽音頭
TTITLE5=即興曲（岩木）
EXTD=
EXTT0=
EXTT1=
EXTT2=
EXTT3=
EXTT4=
EXTT5=
PLAYORDER=
